<svg xmlns="http://www.w3.org/2000/svg"  viewBox="0 0 48 48" width="480px" height="480px"><path fill="#4b7bb2" d="M35.718,43.986c-3.092,0.147-7.816,0.585-12.801,0.556c-2.809-0.016-10.211,0.173-10.211,0.173	c-4.728,0-8.45-3.76-9.041-8.451c-0.202-1.601-0.767-4.98-0.58-6.478c0.398-3.196-0.219-8.009-0.083-9.326	c0.617-5.993,0.318-6.244,0.083-8.308C2.549,7.453,6.923,3.356,11.646,3.59c4.112,0.203,12.317,1.221,16.447,0.854	c3.11-0.276,5.41-0.727,7.224-0.854c4.717-0.33,8.529,2.544,8.561,8.561c0.009,1.612,0.585,3.57,0.527,6.425	c-0.07,3.469-0.495,6.546-0.527,8.105c-0.047,2.285-0.008,6.856,0,9.142C43.894,40.55,42.147,43.679,35.718,43.986z"/><path fill="#010101" d="M12.718,45.215c-4.812,0-8.912-3.822-9.549-8.889c-0.038-0.303-0.089-0.671-0.146-1.078	c-0.25-1.792-0.593-4.247-0.434-5.524c0.243-1.95,0.094-4.603-0.014-6.541c-0.07-1.252-0.125-2.241-0.07-2.775	c0.516-5.003,0.388-5.929,0.195-7.331c-0.037-0.265-0.075-0.545-0.112-0.869C2.333,9.977,3.13,7.692,4.774,5.939	c1.79-1.908,4.371-2.968,6.896-2.849c1.284,0.063,2.983,0.208,4.781,0.36c3.917,0.332,8.791,0.745,11.596,0.496	c1.625-0.145,3.025-0.336,4.26-0.506c1.125-0.155,2.097-0.288,2.974-0.349c2.527-0.177,4.811,0.548,6.421,2.041	c1.734,1.608,2.659,4.035,2.675,7.017c0.003,0.624,0.098,1.313,0.207,2.113c0.167,1.215,0.354,2.592,0.32,4.324	c-0.042,2.096-0.212,4.042-0.349,5.606c-0.089,1.015-0.165,1.891-0.178,2.499c-0.038,1.801-0.021,5.06-0.008,7.439l0.008,1.69	c0.02,5.707-2.644,8.379-8.636,8.665l0,0c-0.854,0.041-1.834,0.104-2.909,0.173c-2.806,0.181-6.296,0.4-9.919,0.384	C20.14,45.031,12.792,45.213,12.718,45.215z M11.267,4.081c-2.124,0-4.255,0.935-5.763,2.542c-1.464,1.561-2.147,3.504-1.923,5.472	c0.036,0.316,0.074,0.588,0.109,0.846c0.203,1.473,0.336,2.447-0.191,7.57c-0.047,0.456,0.009,1.458,0.074,2.617	c0.116,2.085,0.261,4.68,0.007,6.72c-0.143,1.146,0.204,3.623,0.433,5.262c0.057,0.412,0.109,0.784,0.148,1.091	c0.575,4.569,4.248,8.014,8.544,8.014c0.061-0.001,7.438-0.179,10.214-0.173c3.582,0.024,7.059-0.202,9.849-0.382	c1.082-0.069,2.066-0.133,2.926-0.174l0,0c5.475-0.261,7.701-2.48,7.684-7.662l-0.008-1.688c-0.013-2.385-0.03-5.651,0.008-7.465	c0.013-0.641,0.091-1.533,0.182-2.565c0.135-1.549,0.304-3.477,0.345-5.54c0.034-1.653-0.149-2.989-0.311-4.168	c-0.114-0.834-0.212-1.555-0.216-2.243c-0.015-2.699-0.829-4.873-2.355-6.289c-1.425-1.322-3.389-1.938-5.671-1.776	c-0.843,0.059-1.799,0.19-2.907,0.342c-1.246,0.171-2.659,0.365-4.307,0.511C25.245,5.201,20.53,4.8,16.368,4.447	c-1.79-0.151-3.479-0.295-4.747-0.357C11.503,4.083,11.385,4.081,11.267,4.081z"/><path fill="#d6e5e5" d="M34.064,14.872c-1.866-2.328-5.617-3.122-9.446-3.122c-4.598,0-8.884,1.719-10.358,4.85 c-3.462,1.205-6.246,5.39-5.476,9.405c0.568,2.962,3.653,5.622,6.601,6.26c2.178,0.471,5.307-0.973,6.944-2.027 c1.184,2.043-0.347,2.878-0.109,5.228c0.05,0.497,0.528,0.875,0.817,0.469c1.911-2.686,0.994-3.35,2.937-6.014 c0.092,0.005,0.827-0.087,0.92-0.087c2.343,0,5.01-0.438,5.932-2.435c0.182,0.018-0.302-1.222-0.115-1.222 c3.212,0,5.61-1.696,5.61-4.909C38.321,18.381,36.822,15.327,34.064,14.872z"/><path fill="#010101" d="M22.747,36.606c-0.512,0-0.962-0.479-1.024-1.09c-0.109-1.082,0.119-1.86,0.321-2.547 c0.21-0.718,0.373-1.27,0.08-2.018c-1.589,0.936-3.896,1.906-5.82,1.906c-0.364,0-0.708-0.035-1.024-0.103 c-1.844-0.399-3.308-1.81-4.535-3.1l-0.36-0.373c-0.908-0.935-1.846-1.902-2.091-3.182c-0.839-4.375,2.191-8.592,5.604-9.898 c0.823-1.702,2.2-3.886,4.744-4.25c0.346-0.049,0.733-0.112,1.15-0.178c1.449-0.233,3.253-0.522,4.827-0.522 c3.218,0,7.486,0.554,9.715,3.164c2.947,0.609,4.488,3.876,4.488,6.854c0,3.124-2.168,5.196-5.572,5.393 c0.002,0.008,0.004,0.017,0.006,0.024c0.116,0.476,0.186,0.762-0.009,1.01c-0.006,0.008-0.013,0.016-0.02,0.024 c-0.871,1.734-3,2.614-6.332,2.614c-0.042,0.002-0.189,0.019-0.347,0.036c-0.103,0.011-0.209,0.022-0.302,0.031 c-0.82,1.166-1.043,1.904-1.279,2.684c-0.259,0.856-0.526,1.741-1.521,3.14C23.269,36.471,23.021,36.606,22.747,36.606z M22.33,29.737c0.039,0,0.079,0.004,0.117,0.014c0.133,0.032,0.247,0.117,0.315,0.235c0.795,1.373,0.513,2.334,0.241,3.264 c-0.184,0.628-0.375,1.277-0.285,2.165c0.003,0.029,0.009,0.056,0.017,0.08c0.814-1.179,1.038-1.918,1.274-2.7 c0.261-0.864,0.531-1.758,1.561-3.169c0.1-0.136,0.26-0.214,0.43-0.205c0.049-0.002,0.251-0.025,0.439-0.045 c0.21-0.022,0.406-0.042,0.454-0.042c2.953,0,4.79-0.709,5.461-2.109c-0.016-0.085-0.045-0.193-0.072-0.302 c-0.116-0.475-0.192-0.788,0.007-1.042c0.095-0.121,0.267-0.204,0.42-0.204c2.471,0,5.11-1.158,5.11-4.408 c0-2.619-1.318-5.487-3.838-5.902c-0.122-0.02-0.232-0.084-0.309-0.181c-1.945-2.426-5.998-2.935-9.055-2.935 c-1.494,0-3.254,0.283-4.668,0.51c-0.423,0.068-0.816,0.131-1.167,0.181c-2.16,0.309-3.357,2.357-4.07,3.872 c-0.058,0.122-0.161,0.215-0.288,0.259c-3.099,1.078-5.907,4.887-5.149,8.838c0.188,0.986,0.984,1.806,1.827,2.674l0.367,0.38 c1.176,1.237,2.456,2.473,4.022,2.812c1.75,0.381,4.732-0.778,6.568-1.959C22.14,29.765,22.234,29.737,22.33,29.737z"/></svg>